<?xml version="1.0" standalone="no"?>
<!DOCTYPE svg PUBLIC "-//W3C//DTD SVG 20010904//EN"
 "http://www.w3.org/TR/2001/REC-SVG-20010904/DTD/svg10.dtd">
<svg version="1.0" xmlns="http://www.w3.org/2000/svg"
 width="750.000000pt" height="750.000000pt" viewBox="0 0 750.000000 750.000000"
 preserveAspectRatio="xMidYMid meet">
<metadata>
Created by potrace 1.11, written by Peter Selinger 2001-2013
</metadata>
<g transform="translate(0.000000,750.000000) scale(0.100000,-0.100000)"
fill="#000000" stroke="none">
<path d="M3560 6433 c-211 -20 -459 -73 -621 -132 -85 -32 -156 -71 -99 -55
14 4 26 10 28 13 1 4 20 5 42 3 26 -3 40 0 40 8 0 6 4 9 9 6 5 -3 33 -1 62 4
30 5 81 12 114 15 33 3 123 12 200 21 153 18 421 14 585 -9 85 -12 85 -12
-105 -13 -230 -2 -395 -22 -603 -74 -178 -45 -281 -82 -336 -122 -22 -15 -85
-42 -140 -59 -261 -80 -639 -368 -892 -679 -55 -68 -184 -246 -184 -254 0 -2
-16 -30 -35 -62 -39 -65 -46 -65 -14 -1 12 23 21 44 20 46 -2 2 1 7 6 10 5 3
22 32 38 64 15 31 32 57 37 57 5 0 7 4 3 9 -7 13 50 102 60 93 5 -4 5 -2 2 4
-8 13 68 126 78 116 5 -4 5 1 2 10 -4 13 -2 15 10 11 12 -5 15 -2 10 9 -6 18
45 72 58 61 4 -5 5 -3 1 4 -4 7 10 29 34 54 22 23 37 46 33 53 -3 6 -3 8 1 4
9 -8 76 58 76 75 0 5 2 8 5 5 4 -3 36 23 73 57 37 34 101 91 142 125 41 34 79
68 85 75 15 19 131 95 145 95 7 0 10 7 7 14 -4 9 -1 13 6 10 7 -2 24 7 37 21
25 27 12 36 -14 9 -9 -8 -16 -13 -16 -10 0 20 -203 -104 -350 -213 -127 -95
-362 -322 -461 -445 -172 -216 -341 -519 -428 -769 -204 -588 -200 -1193 11
-1777 53 -147 184 -405 272 -539 357 -538 894 -924 1526 -1094 524 -141 1110
-107 1622 94 675 266 1207 796 1477 1471 190 474 235 1002 130 1513 -125 602
-486 1173 -979 1544 -381 287 -788 453 -1264 516 -106 14 -438 19 -546 8z
m-1189 -1883 c62 -37 90 -60 56 -47 -30 11 -5 -92 35 -147 34 -47 63 -109 73
-157 4 -19 12 -40 19 -48 9 -12 8 -12 -11 -3 -12 7 -28 12 -35 12 -7 -1 43
-30 112 -65 189 -98 406 -263 511 -388 l49 -59 -26 -33 c-58 -77 -206 -164
-339 -199 -33 -9 -112 -19 -176 -23 l-116 -6 -2 -51 c-2 -71 23 -109 86 -130
56 -18 118 -66 126 -95 4 -17 -1 -22 -32 -28 -49 -11 -221 -8 -247 3 l-22 9
19 59 c22 69 19 86 -32 186 -22 42 -39 80 -39 86 0 6 -24 26 -52 44 -92 59
-182 159 -227 252 -59 124 -76 213 -76 400 0 86 3 159 7 163 3 3 55 -5 115
-20 59 -14 117 -28 128 -30 11 -3 5 2 -13 10 -18 9 -31 19 -29 23 38 73 64
193 55 254 -3 15 -1 28 3 28 4 0 6 9 4 20 -2 11 -2 20 1 20 3 0 37 -18 75 -40z
m2892 -3 c-10 -17 20 -204 39 -241 19 -38 20 -40 2 -53 -24 -17 -23 -17 101
13 59 14 110 22 113 19 4 -4 7 -86 7 -183 -1 -199 -11 -255 -71 -380 -41 -85
-144 -200 -221 -246 -44 -27 -52 -39 -97 -133 -39 -84 -47 -110 -43 -141 9
-60 19 -97 30 -104 32 -20 -241 -32 -290 -12 l-23 9 20 33 c13 21 39 41 77 58
32 15 65 30 72 34 29 13 53 58 57 104 3 33 1 46 -8 46 -9 0 -8 3 2 10 10 7
-10 10 -65 10 -154 0 -311 40 -421 106 -66 39 -164 131 -164 152 0 19 126 148
220 227 107 88 243 178 354 232 91 43 123 67 60 43 -27 -11 -27 -10 -11 8 9
10 17 28 17 40 0 26 34 102 68 152 13 19 28 46 34 60 14 35 18 90 6 90 -19 0
5 20 65 54 55 31 63 33 68 18 4 -9 5 -20 2 -25z"/>
</g>
</svg>
